<?xml version="1.0" standalone="no"?>
<!DOCTYPE svg PUBLIC "-//W3C//DTD SVG 1.1//EN" "http://www.w3.org/Graphics/SVG/1.1/DTD/svg11.dtd" >
<!--
2013-9-30: Created.
-->
<svg>
<metadata>
Created by iconfont
</metadata>
<defs>

<font id="iconfont" horiz-adv-x="1024" >
  <font-face
    font-family="iconfont"
    font-weight="500"
    font-stretch="normal"
    units-per-em="1024"
    ascent="896"
    descent="-128"
  />
    <missing-glyph />
    
    <glyph glyph-name="icon-test" unicode="&#58943;" d="M39.6 817.8l412.6-412.4L39.6-7zM903 621.4v-432l-216 216 216 216m81.4 196.4L571.8 405.4l412.4-412.4V817.8h0.2zM473.6 872.2h74.6V-104h-74.6z"  horiz-adv-x="1024" />

    
    <glyph glyph-name="icon-test-copy" unicode="&#58944;" d="M945.8 856.4l-412.4-412.6-412.4 412.6zM749.4-7h-432l216 216 216-216M945.8-88.4l-412.4 412.6-412.4-412.4 824.8-0.199zM1000.2 422.399v-74.6h-976.201v74.6z"  horiz-adv-x="1024" />

    
    <glyph glyph-name="tuichudenglu" unicode="&#58929;" d="M424.19 220.167l64.823-64.823 229.869 229.869-229.869 229.869-64.823-64.823 118.612-119.072H98.236v-91.948h444.567L424.19 220.167zM833.817 798.978H190.183c-51.031 0-91.948-41.376-91.948-91.948v-183.895h91.948V707.03h643.633v-643.633H190.183V247.292H98.236v-183.895c0-50.571 40.917-91.948 91.948-91.948h643.633c50.571 0 91.948 41.376 91.948 91.948V707.03c-0.001 50.571-41.377 91.948-91.948 91.948z"  horiz-adv-x="1024" />

    
    <glyph glyph-name="xiajiangxiajiantouxiangxiadiemianxing" unicode="&#59646;" d="M895.260444 384.028444a29.866667 29.866667 0 0 0 22.129778-49.92L534.129778-89.230222a29.866667 29.866667 0 0 0-44.259556 0L106.609778 334.108444a29.866667 29.866667 0 0 0 22.129778 49.92h177.436444V837.688889c0 16.497778 13.368889 29.866667 29.866667 29.866667h351.914666c16.497778 0 29.866667-13.368889 29.866667-29.866667v-453.660445h177.436444z"  horiz-adv-x="1024" />

    
    <glyph glyph-name="zuojiantouxiangzuofanhuimianxing" unicode="&#59648;" d="M512.113778 178.062222v-177.408a29.866667 29.866667 0 0 0-49.92-22.158222L38.826667 361.756444a29.866667 29.866667 0 0 0 0 44.288L462.222222 789.276444a29.866667 29.866667 0 0 0 49.92-22.129777v-177.436445h453.660445c16.497778 0 29.866667-13.368889 29.866666-29.866666V207.928889c0-16.497778-13.368889-29.866667-29.866666-29.866667h-453.688889z"  horiz-adv-x="1024" />

    
    <glyph glyph-name="youjiantouxiangyouqianwangmianxing" unicode="&#59650;" d="M511.971556 178.062222H58.311111c-16.497778 0-29.866667 13.368889-29.866667 29.866667V559.843556c0 16.497778 13.368889 29.866667 29.866667 29.866666h453.660445V767.146667a29.866667 29.866667 0 0 0 49.92 22.129777l423.338666-383.232a29.866667 29.866667 0 0 0 0-44.288L561.891556-21.504a29.866667 29.866667 0 0 0-49.92 22.158222V178.062222z"  horiz-adv-x="1024" />

    
    <glyph glyph-name="shuaxin" unicode="&#58902;" d="M953.5 785.375L890.125 728.5C796.75 830.875 663.125 896 513.625 896 230.875 895.875 1.75 666.75 1.75 384s229.125-512 511.875-512c198 0 369.125 112.75 454.25 277.25 5.125 9.375 8.875 19.625 8.875 31 0 36.125-29.125 65.375-65 65.375-24.875 0-45.625-14.5-56.625-35.125l-0.25 0.125c-0.75-1.375-1.625-2.75-2.375-4.125-0.25-0.375-0.5-0.75-0.625-1.125C787.5 83.375 660-0.25 512.5-0.25c-212 0-384 172-384 384.25s172 384.25 384 384.25c112 0 212-48.625 282.125-125.375l-59.375-53.25c-27.375-24.5-11.5-69.75 25.25-71.875l206.25-11.875c22.75-1.25 42.25 16 43.5 38.875l11.875 207.5c2.25 36.75-41.25 57.75-68.625 33.125z m0 0"  horiz-adv-x="1024" />

    
    <glyph glyph-name="ziyuanxhdpi" unicode="&#58955;" d="M1037.326235 835.426205a30.286897 30.286897 0 0 0 30.286897-30.286897v-704.170364a30.286897 30.286897 0 0 0-30.286897-30.286897H90.860692a30.286897 30.286897 0 0 0-30.286897 30.286897V805.139308a30.286897 30.286897 0 0 0 30.286897 30.286897h946.465543m0 60.573795H90.860692a90.860692 90.860692 0 0 1-90.860692-90.860692v-704.170364a90.860692 90.860692 0 0 1 90.860692-90.860692h946.465543a90.860692 90.860692 0 0 1 90.860692 90.860692V805.139308a90.860692 90.860692 0 0 1-90.860692 90.860692zM564.244898 675.511387a222.608696 222.608696 0 1 0-222.608696-222.608695 222.911565 222.911565 0 0 0 222.608696 222.608695m0 60.573795A283.18249 283.18249 0 1 1 848.033126 452.902692a282.879621 282.879621 0 0 1-282.879621 283.18249zM668.734694 452.902692a105.095534 105.095534 0 0 0-210.191068 0M563.63916 348.110027a105.095534 105.095534 0 1 0 0 209.888198M157.491866-67.426205h810.174505v-60.573795H157.491866zM491.253475 10.108252h142.954156v-107.821355h-142.954156z"  horiz-adv-x="1128" />

    
    <glyph glyph-name="shujuchaxun" unicode="&#58976;" d="M477-78H108.8c-13.8 0-25 11.2-25 25V821c0 13.8 11.2 25 25 25h750c13.8 0 25-11.2 25-25v-469h50V846c0 27.6-22.4 50-50 50h-800c-27.6 0-50-22.4-50-50v-924c0-27.6 22.4-50 50-50H477v50zM909 354m-25 0a25 25 0 1 1 50 0 25 25 0 1 1-50 0ZM482-103m-25 0a25 25 0 1 1 50 0 25 25 0 1 1-50 0ZM767 647H169c-13.7 0-25 11.2-25 25 0 13.7 11.2 25 25 25h598c13.8 0 25-11.2 25-25s-11.2-25-25-25zM767 385.5H169c-13.7 0-25 11.3-25 25s11.2 25 25 25h598c13.8 0 25-11.3 25-25 0-13.8-11.2-25-25-25zM474 124H184c-13.7 0-25 11.3-25 25 0 13.8 11.2 25 25 25h290c13.7 0 25-11.3 25-25 0-13.8-11.2-25-25-25zM895.8-118.9l-97.5 110.8c-9.1 10.3-8.1 26.2 2.2 35.3 10.3 9.1 26.2 8.1 35.3-2.2l97.5-110.8c9.1-10.3 8.1-26.2-2.2-35.3-10.3-9.1-26.2-8.1-35.3 2.2zM795.7 295.3C708 336 604 297.9 563.3 210.2c-40.7-87.7-2.6-191.7 85.1-232.4 87.7-40.7 191.7-2.6 232.4 85.1 40.7 87.7 2.6 191.8-85.1 232.4zM669.5 23.2c-62.6 29-89.8 103.4-60.8 166S712 279 774.7 250c62.6-29 89.8-103.4 60.8-166-29.1-62.6-103.4-89.9-166-60.8z"  horiz-adv-x="1024" />

    
    <glyph glyph-name="zhuapai" unicode="&#58960;" d="M1068.521739-128H133.565217a133.565217 133.565217 0 0 0-133.565217 133.565217V584.347826a133.565217 133.565217 0 0 0 133.565217 133.565217h289.391305l22.260869 89.043479a101.286957 101.286957 0 0 0 89.043479 89.043478h356.173913a103.290435 103.290435 0 0 0 89.043478-89.043478l22.260869-89.043479H1068.521739a133.565217 133.565217 0 0 0 133.565218-133.565217v-578.782609a133.565217 133.565217 0 0 0-133.565218-133.565217z m44.521739 667.826087a89.043478 89.043478 0 0 1-89.043478 89.043478h-89.043478l-44.521739 155.826087a25.021217 25.021217 0 0 1-22.26087 22.26087h-311.652174a24.442435 24.442435 0 0 1-22.260869-22.26087L489.73913 628.869565H178.086957a89.043478 89.043478 0 0 1-89.043479-89.043478v-489.73913a89.043478 89.043478 0 0 1 89.043479-89.043479h845.913043a89.043478 89.043478 0 0 1 89.043478 89.043479V539.826087z m-400.695652-445.217391a222.608696 222.608696 0 1 0 222.608696 222.608695 222.608696 222.608696 0 0 0-222.608696-222.608695z m0 356.173913a133.565217 133.565217 0 1 1 133.565217-133.565218 133.565217 133.565217 0 0 1-133.565217 133.565218z m-422.956522-44.521739A66.782609 66.782609 0 1 0 356.173913 473.043478 66.782609 66.782609 0 0 0 289.391304 406.26087z"  horiz-adv-x="1202" />

    
    <glyph glyph-name="youshang" unicode="&#58956;" d="M811.974239 683.97473l-15.994869-612.033616L199.940623 667.979861zM285.776372 637.007453l479.23059-479.23059L775.708825 647.709316 285.779992 637.011073zM849.466963 681.549071l-13.362847-611.523142c-0.684253-31.298243-38.19146-44.353358-61.2316-21.313216L176.712222 646.873007c-23.040141 23.040141-9.981406 60.543727 21.313216 61.2316L809.54858 721.467454c21.7187 0.474271 40.392655-18.199684 39.918383-39.918383zM493.897923 655.529351m28.963093-28.963094l231.70475-231.70475q28.963094-28.963094 0-57.926187l-394.622152-394.622153q-28.963094-28.963094-57.926188 0l-231.70475 231.70475q-28.963094 28.963094 0 57.926188l394.622153 394.622152q28.963094 28.963094 57.926187 0Z"  horiz-adv-x="1024" />

    
    <glyph glyph-name="youxia" unicode="&#58957;" d="M811.97473 84.026456l-612.033616 15.994868L795.979861 696.060072zM765.007453 610.224323l-479.23059-479.23059L775.709316 120.29187 765.011073 610.220702zM809.549071 46.533731l-611.523142 13.362847c-31.298243 0.684253-44.353358 38.19146-21.313216 61.231601L774.873007 719.288473c23.040141 23.040141 60.543727 9.981406 61.2316-21.313217L849.467454 86.452115c0.474271-21.7187-18.199684-40.392655-39.918383-39.918384zM783.529351 402.102772m-28.963094-28.963094l-231.70475-231.70475q-28.963094-28.963094-57.926187 0l-394.622153 394.622152q-28.963094 28.963094 0 57.926188l231.70475 231.70475q28.963094 28.963094 57.926188 0l394.622152-394.622152q28.963094-28.963094 0-57.926188Z"  horiz-adv-x="1024" />

    
    <glyph glyph-name="zuoshang" unicode="&#58959;" d="M212.024472 683.974195l15.994868-612.033615L824.058087 667.979327zM738.222339 637.006918l-479.23059-479.23059L248.289885 647.708782 738.218718 637.010539zM174.531747 681.548536l13.362847-611.523141c0.684253-31.298243 38.19146-44.353358 61.231601-21.313217L847.286489 646.872472c23.040141 23.040141 9.981406 60.543727-21.313217 61.231601L214.450131 721.46692c-21.7187 0.474271-40.392655-18.199684-39.918384-39.918384zM530.100788 655.528817m-28.963094-28.963094l-231.70475-231.70475q-28.963094-28.963094 0-57.926187l394.622152-394.622153q28.963094-28.963094 57.926188 0l231.70475 231.70475q28.963094 28.963094 0 57.926188l-394.622153 394.622152q-28.963094 28.963094-57.926187 0Z"  horiz-adv-x="1024" />

    
    <glyph glyph-name="zuoxia" unicode="&#58961;" d="M212.025805 84.026763l612.033615 15.994869L228.020673 696.060379zM258.993082 610.22463l479.23059-479.23059L248.291218 120.292177 258.989461 610.22101zM214.451464 46.534039l611.523141 13.362847c31.298243 0.684253 44.353358 38.19146 21.313217 61.231601L249.127528 719.28878c-23.040141 23.040141-60.543727 9.981406-61.231601-21.313216L174.53308 86.452423c-0.474271-21.7187 18.199684-40.392655 39.918384-39.918384zM240.471183 402.10308m28.963094-28.963094l231.70475-231.70475q28.963094-28.963094 57.926187 0l394.622153 394.622152q28.963094 28.963094 0 57.926188l-231.70475 231.70475q-28.963094 28.963094-57.926188 0l-394.622152-394.622153q-28.963094-28.963094 0-57.926187Z"  horiz-adv-x="1024" />

    
    <glyph glyph-name="fangda1111" unicode="&#58887;" d="M1006.292461-25.586176000000023c23.494759-23.409427 23.608535-61.439078 0.227552-84.962281a60.187542 60.187542 0 0 0-85.019169 0.28444l-145.860923 145.889367a477.575059 477.575059 0 0 0-294.537804-101.573587C215.804763-65.97668099999999 0 149.828081 0 415.011659S215.804763 896 481.102117 896c265.297354 0 481.130561-215.747875 481.130561-480.988341 0-111.130777-38.257204-213.301689-101.829584-294.765356l145.889367-145.832479zM91.589737 415.011659c0-214.667002 174.731601-389.370159 389.51238-389.370159 214.752334 0 389.483936 174.703157 389.483935 389.370159S695.854451 804.353375 481.102117 804.353375 91.589737 629.7071060000001 91.589737 415.011659z m551.614837 45.794869c24.348079 0 44.088228-20.479693 44.088228-45.823313 0-25.315176-19.740148-45.823313-44.088228-45.823312h-116.279145v-116.279145c0-24.319635-20.536581-44.03134-45.823312-44.03134-25.315176 0-45.794869 19.740148-45.794869 44.03134v116.279145h-116.336033c-24.376523 0-44.088228 20.536581-44.088227 45.823312 0 25.315176 19.768592 45.823313 44.088227 45.823313h116.336033V577.142561c0 24.348079 20.479693 44.002896 45.794869 44.002895 25.315176 0 45.823313-19.68326 45.823312-44.002895V460.806528h116.279145z"  horiz-adv-x="1024" />

    
    <glyph glyph-name="shangshengshangjiantouxiangshangzhangmianxing" unicode="&#58888;" d="M717.824-69.689c0-16.498-13.369-29.867-29.867-29.867H336.043c-16.498 0-29.867 13.37-29.867 29.867v453.66H128.74a29.867 29.867 0 0 0-22.13 49.92l383.26 423.34a29.867 29.867 0 0 0 44.26 0l383.26-423.34a29.867 29.867 0 0 0-22.13-49.92H717.824v-453.66z"  horiz-adv-x="1024" />

    
    <glyph glyph-name="layuanjiaoju" unicode="&#59253;" d="M175.321212 720.306424v-232.727272a27.927273 27.927273 0 0 0-55.854545 0v251.345454a37.236364 37.236364 0 0 0 37.236363 37.236364h251.345455a27.927273 27.927273 0 1 0 0-55.854546h-232.727273zM846.258424 282.220606a27.927273 27.927273 0 0 0 55.854546 0v-251.345454a37.236364 37.236364 0 0 0-37.236364-37.236364h-251.345454a27.927273 27.927273 0 1 0 0 55.854545h232.727272v232.727273zM846.258424 720.306424h-232.727272a27.927273 27.927273 0 1 0 0 55.854546h251.345454a37.236364 37.236364 0 0 0 37.236364-37.236364v-251.345454a27.927273 27.927273 0 1 0-55.854546 0v232.727272zM175.321212 49.493333h232.727273a27.927273 27.927273 0 0 0 0-55.854545h-251.345455a37.236364 37.236364 0 0 0-37.236363 37.236364v251.345454a27.927273 27.927273 0 1 0 55.854545 0v-232.727273zM288.892121 406.807273m27.927273 0l372.363636 0q27.927273 0 27.927273-27.927273l0 0q0-27.927273-27.927273-27.927273l-372.363636 0q-27.927273 0-27.927273 27.927273l0 0q0 27.927273 27.927273 27.927273Z"  horiz-adv-x="1024" />

    
    <glyph glyph-name="lajinjiaoju" unicode="&#59254;" d="M191.146667 740.631273v-232.727273a27.927273 27.927273 0 0 0-55.854546 0v251.345455a37.236364 37.236364 0 0 0 37.236364 37.236363h251.345454a27.927273 27.927273 0 1 0 0-55.854545h-232.727272zM862.083879 302.545455a27.927273 27.927273 0 0 0 55.854545 0v-251.345455a37.236364 37.236364 0 0 0-37.236363-37.236364h-251.345455a27.927273 27.927273 0 1 0 0 55.854546h232.727273v232.727273zM862.083879 740.631273h-232.727273a27.927273 27.927273 0 1 0 0 55.854545h251.345455a37.236364 37.236364 0 0 0 37.236363-37.236363v-251.345455a27.927273 27.927273 0 1 0-55.854545 0v232.727273zM191.146667 69.818182h232.727272a27.927273 27.927273 0 0 0 0-55.854546h-251.345454a37.236364 37.236364 0 0 0-37.236364 37.236364v251.345455a27.927273 27.927273 0 1 0 55.854546 0v-232.727273zM304.717576 427.132121m27.927272 0l372.363637 0q27.927273 0 27.927273-27.927273l0 0q0-27.927273-27.927273-27.927272l-372.363637 0q-27.927273 0-27.927272 27.927272l0 0q0 27.927273 27.927272 27.927273ZM546.753939 585.386667v-372.363637a27.927273 27.927273 0 1 0-55.854545 0V585.386667a27.927273 27.927273 0 1 0 55.854545 0z"  horiz-adv-x="1024" />

    
    <glyph glyph-name="suoxiao" unicode="&#58905;" d="M1064.690526-24.845474l-164.486737 156.294737a44.840421 44.840421 0 0 1-13.419789 8.461474c64.188632 79.279158 102.831158 178.283789 102.831158 286.019368C989.615158 685.594947 768 896 494.753684 896 221.507368 896 0 685.594947 0 425.930105c0-259.557053 221.507368-470.069895 494.753684-470.069894 113.448421 0 217.680842 36.702316 301.109895 97.657263 2.209684-4.581053 4.958316-9.000421 8.946526-12.773053l164.486737-156.240842c17.569684-16.707368 46.026105-16.707368 63.59579 0l31.797894 30.181053a41.229474 41.229474 0 0 1 0 60.469894zM494.807579 41.337263c-223.609263 0-404.857263 172.193684-404.857263 384.592842 0 212.399158 181.248 384.592842 404.857263 384.592842 223.555368 0 404.803368-172.193684 404.803368-384.592842 0-212.399158-181.194105-384.592842-404.803368-384.592842z m202.428632 427.385263H292.378947a21.881263 21.881263 0 0 1-22.474105-21.39621v-42.738527c0-11.802947 10.024421-21.396211 22.474105-21.39621h404.857264c12.395789 0 22.474105 9.593263 22.474105 21.39621v42.738527a21.935158 21.935158 0 0 1-22.474105 21.342316z"  horiz-adv-x="1077" />

    
    <glyph glyph-name="shujufenxi" unicode="&#58898;" d="M259.462 220.472H118.034a64.55 64.55 0 0 1-62.502-66.128V-61.83a64.55 64.55 0 0 1 62.502-66.127h141.428a64.592 64.592 0 0 1 62.715 66.127V154.344a64.592 64.592 0 0 1-62.715 66.128z m0-304.401H118.034a19.198 19.198 0 0 0-19.199 22.12v213.53a21.332 21.332 0 0 0 19.199 24.488h141.428a22.12 22.12 0 0 0 20.691-24.488v-213.55a20.052 20.052 0 0 0-20.691-22.121z m678.343 668.595H796.377a65.061 65.061 0 0 1-62.501-67.301V-60.72a65.04 65.04 0 0 1 62.501-67.28h141.428a65.19 65.19 0 0 1 62.502 67.28V517.365a65.061 65.061 0 0 1-62.502 67.3z m2.133-665.78H796.377a16.425 16.425 0 0 0-17.705 20.33V510.795a19.198 19.198 0 0 0 17.705 23.827h141.428a19.54 19.54 0 0 0 17.919-23.827v-571.58c0-14.227-3.627-20.328-15.786-20.328zM440.993 419.134a64.955 64.955 0 0 1-62.714-66.81v-413.449a64.933 64.933 0 0 1 62.714-66.81h141.642a64.933 64.933 0 0 1 62.715 66.81V352.323a64.955 64.955 0 0 1-62.715 66.81H440.993zM582.635-81.88H440.993a17.77 17.77 0 0 0-19.198 20.755V352.323a19.05 19.05 0 0 0 19.198 22.376h141.642a19.326 19.326 0 0 0 19.625-22.376v-413.449a18.046 18.046 0 0 0-19.625-20.755zM561.73 448.507L904.528 798.728l62.928-65.061L975.99 895.979h-173l63.356-67.045-333.84-334.053-176.411 181.767a41.831 41.831 0 0 1-58.662 0L36.334 407.87a29.694 29.694 0 0 1-3.627-45.842c13.44-13.908 34.13 1.131 49.703 17.215L330.922 631.19l173-179.889a39.271 39.271 0 0 1 28.584-12.052 38.14 38.14 0 0 1 29.224 9.172z"  horiz-adv-x="1024" />

    
    <glyph glyph-name="shebeifenzu" unicode="&#59013;" d="M388.266667 16.213333H247.466667a170.666667 170.666667 0 0 0-170.666667 170.666667V620.8a170.666667 170.666667 0 0 0 170.666667 170.666667h140.8a42.666667 42.666667 0 0 0 0-85.333334H247.466667a85.333333 85.333333 0 0 1-85.333334-85.333333v-432.213333a85.333333 85.333333 0 0 1 85.333334-85.333334h140.8a42.666667 42.666667 0 0 0 0-85.333333zM388.266667 352H117.76a42.666667 42.666667 0 0 0 0 85.333333H388.266667a42.666667 42.666667 0 1 0 0-85.333333zM885.76 615.253333h-389.546667a128 128 0 0 0 0 256h389.546667a128 128 0 0 0 128-128 128 128 0 0 0-128-128z m-389.546667 172.8a42.666667 42.666667 0 0 1-42.666666-42.666666 42.666667 42.666667 0 0 1 42.666666-44.8h389.546667a42.666667 42.666667 0 0 1 42.666667 42.666666 42.666667 42.666667 0 0 1-42.666667 44.8zM584.533333 615.253333a42.666667 42.666667 0 0 0-42.666666 42.666667v170.666667a42.666667 42.666667 0 1 0 85.333333 0v-170.666667a42.666667 42.666667 0 0 0-42.666667-42.666667zM885.76 274.773333h-389.546667a128 128 0 0 0 0 258.56h389.546667a128 128 0 0 0 0-258.56z m-389.546667 173.226667a42.666667 42.666667 0 0 1-42.666666-42.666667 42.666667 42.666667 0 0 1 42.666666-45.226666h389.546667a42.666667 42.666667 0 0 1 42.666667 42.666666 42.666667 42.666667 0 0 1-42.666667 45.226667zM584.533333 274.773333a42.666667 42.666667 0 0 0-42.666666 42.666667V490.666667a42.666667 42.666667 0 0 0 85.333333 0v-173.226667a42.666667 42.666667 0 0 0-42.666667-42.666667zM885.76-65.28h-389.546667a128 128 0 0 0 0 258.133333h389.546667a128 128 0 0 0 0-258.133333z m-389.546667 172.8a42.666667 42.666667 0 0 1-42.666666-42.666667 42.666667 42.666667 0 0 1 42.666666-44.8h389.546667a42.666667 42.666667 0 0 1 42.666667 42.666667 42.666667 42.666667 0 0 1-42.666667 44.8zM584.533333-65.28a42.666667 42.666667 0 0 0-42.666666 42.666667v172.8a42.666667 42.666667 0 0 0 85.333333 0v-172.8a42.666667 42.666667 0 0 0-42.666667-42.666667z"  horiz-adv-x="1024" />

    
    <glyph glyph-name="tubiaozhizuomoban-91" unicode="&#58903;" d="M929.61 129.77L613.13 446.24C650.86 548.1 626 665.1 548.72 742.36 461.15 829.93 328.8 849.93 219.37 792.22a25.38 25.38 0 0 1-6.1-40.39l88-88c17.94-17.94 21.75-46 8.88-65.24a49.76 49.76 0 0 0-37-22.35 50.47 50.47 0 0 0-40.45 14.36l-90.33 90.34a25.36 25.36 0 0 1-40.39-6.1c-57.73-109.44-37.7-241.78 49.85-329.35 77.28-77.28 194.28-102.24 296.17-64.43L764.44-35.4a97.21 97.21 0 0 1 137.53 0l27.64 27.62a97.36 97.36 0 0 1 0 137.55zM893.73 28.1l-27.64-27.62c-17.56-17.52-48.19-17.57-65.77 0L471.94 328.84a25.39 25.39 0 0 1-28.24 5.25c-86.42-38.5-189.28-19.43-256 47.28-63.26 63.28-83.5 155.08-54.93 237.4l64-64a101.05 101.05 0 0 1 155.5 15.68c26.51 39.62 20.13 94-15.18 129.32l-61.69 61.7c82.28 28.57 174.12 8.35 237.39-54.94 66.7-66.7 85.71-169.55 47.27-256a25.37 25.37 0 0 1 5.25-28.25l328.42-328.39a46.59 46.59 0 0 0 0-65.79z"  horiz-adv-x="1024" />

    


  </font>
</defs>
</svg>
